<mxfile host="app.diagrams.net" modified="2022-06-11T12:45:46.621Z" agent="5.0 (Windows NT 10.0; Win64; x64) AppleWebKit/537.36 (KHTML, like Gecko) Chrome/102.0.5005.63 Safari/537.36 Edg/102.0.1245.33" etag="IcC2FMUIVlQ9wh9ykx4n" version="19.0.3" type="github">
  <diagram id="92vi3gmfMHJBr1PCUuRd" name="Page-1">
    <mxGraphModel dx="1577" dy="452" grid="1" gridSize="10" guides="1" tooltips="1" connect="1" arrows="1" fold="1" page="1" pageScale="1" pageWidth="827" pageHeight="1169" math="0" shadow="0">
      <root>
        <mxCell id="0" />
        <mxCell id="1" parent="0" />
        <mxCell id="blCKw0wp8l2TaCpXEBkv-14" style="edgeStyle=orthogonalEdgeStyle;rounded=0;orthogonalLoop=1;jettySize=auto;html=1;exitX=0.5;exitY=1;exitDx=0;exitDy=0;entryX=0.5;entryY=0;entryDx=0;entryDy=0;fontFamily=Times New Roman;fontSize=14;" parent="1" source="blCKw0wp8l2TaCpXEBkv-3" target="blCKw0wp8l2TaCpXEBkv-5" edge="1">
          <mxGeometry relative="1" as="geometry" />
        </mxCell>
        <mxCell id="blCKw0wp8l2TaCpXEBkv-3" value="&lt;font style=&quot;font-size: 14px;&quot;&gt;&lt;span style=&quot;&quot;&gt;开始&lt;/span&gt;&lt;/font&gt;" style="rounded=1;whiteSpace=wrap;html=1;arcSize=50;fontFamily=Times New Roman;fontStyle=0;shadow=1;" parent="1" vertex="1">
          <mxGeometry x="-20" y="10" width="80" height="40" as="geometry" />
        </mxCell>
        <mxCell id="blCKw0wp8l2TaCpXEBkv-15" style="edgeStyle=orthogonalEdgeStyle;rounded=0;orthogonalLoop=1;jettySize=auto;html=1;exitX=0.5;exitY=1;exitDx=0;exitDy=0;entryX=0.5;entryY=0;entryDx=0;entryDy=0;fontFamily=Times New Roman;fontSize=14;" parent="1" source="blCKw0wp8l2TaCpXEBkv-5" target="blCKw0wp8l2TaCpXEBkv-8" edge="1">
          <mxGeometry relative="1" as="geometry" />
        </mxCell>
        <mxCell id="blCKw0wp8l2TaCpXEBkv-5" value="&lt;font style=&quot;font-size: 14px;&quot;&gt;K-Means聚类算法向用户推荐数据&lt;/font&gt;" style="rounded=0;whiteSpace=wrap;html=1;fontSize=24;fontFamily=Times New Roman;fontStyle=0;shadow=1;" parent="1" vertex="1">
          <mxGeometry x="-60" y="70" width="160" height="60" as="geometry" />
        </mxCell>
        <mxCell id="blCKw0wp8l2TaCpXEBkv-6" value="&lt;font style=&quot;font-size: 14px;&quot;&gt;&lt;span style=&quot;&quot;&gt;结束&lt;/span&gt;&lt;/font&gt;" style="rounded=1;whiteSpace=wrap;html=1;arcSize=50;fontFamily=Times New Roman;fontStyle=0;shadow=1;" parent="1" vertex="1">
          <mxGeometry x="-20" y="550" width="80" height="40" as="geometry" />
        </mxCell>
        <mxCell id="blCKw0wp8l2TaCpXEBkv-16" style="edgeStyle=orthogonalEdgeStyle;rounded=0;orthogonalLoop=1;jettySize=auto;html=1;exitX=0.5;exitY=1;exitDx=0;exitDy=0;fontFamily=Times New Roman;fontSize=14;" parent="1" source="blCKw0wp8l2TaCpXEBkv-8" target="blCKw0wp8l2TaCpXEBkv-9" edge="1">
          <mxGeometry relative="1" as="geometry" />
        </mxCell>
        <mxCell id="blCKw0wp8l2TaCpXEBkv-8" value="&lt;font style=&quot;font-size: 14px;&quot;&gt;专家为数据进行标注&lt;/font&gt;" style="rounded=0;whiteSpace=wrap;html=1;fontSize=24;fontFamily=Times New Roman;fontStyle=0;shadow=1;" parent="1" vertex="1">
          <mxGeometry x="-60" y="150" width="160" height="60" as="geometry" />
        </mxCell>
        <mxCell id="blCKw0wp8l2TaCpXEBkv-17" style="edgeStyle=orthogonalEdgeStyle;rounded=0;orthogonalLoop=1;jettySize=auto;html=1;exitX=0.5;exitY=1;exitDx=0;exitDy=0;entryX=0.5;entryY=0;entryDx=0;entryDy=0;fontFamily=Times New Roman;fontSize=14;" parent="1" source="blCKw0wp8l2TaCpXEBkv-9" target="blCKw0wp8l2TaCpXEBkv-10" edge="1">
          <mxGeometry relative="1" as="geometry" />
        </mxCell>
        <mxCell id="blCKw0wp8l2TaCpXEBkv-9" value="&lt;font style=&quot;font-size: 14px;&quot;&gt;随机森林模型对数据进行预测分类&lt;br&gt;&lt;/font&gt;" style="rounded=0;whiteSpace=wrap;html=1;fontSize=24;fontFamily=Times New Roman;fontStyle=0;shadow=1;" parent="1" vertex="1">
          <mxGeometry x="-60" y="260" width="160" height="60" as="geometry" />
        </mxCell>
        <mxCell id="blCKw0wp8l2TaCpXEBkv-18" style="edgeStyle=orthogonalEdgeStyle;rounded=0;orthogonalLoop=1;jettySize=auto;html=1;exitX=0.5;exitY=1;exitDx=0;exitDy=0;entryX=0.5;entryY=0;entryDx=0;entryDy=0;fontFamily=Times New Roman;fontSize=14;" parent="1" source="blCKw0wp8l2TaCpXEBkv-10" target="blCKw0wp8l2TaCpXEBkv-12" edge="1">
          <mxGeometry relative="1" as="geometry" />
        </mxCell>
        <mxCell id="blCKw0wp8l2TaCpXEBkv-10" value="&lt;font style=&quot;font-size: 14px;&quot;&gt;根据不确定性原则向专家推荐数据&lt;/font&gt;" style="rounded=0;whiteSpace=wrap;html=1;fontSize=24;fontFamily=Times New Roman;fontStyle=0;shadow=1;" parent="1" vertex="1">
          <mxGeometry x="-60" y="339" width="160" height="60" as="geometry" />
        </mxCell>
        <mxCell id="blCKw0wp8l2TaCpXEBkv-19" style="edgeStyle=orthogonalEdgeStyle;rounded=0;orthogonalLoop=1;jettySize=auto;html=1;exitX=0.5;exitY=1;exitDx=0;exitDy=0;fontFamily=Times New Roman;fontSize=14;" parent="1" source="blCKw0wp8l2TaCpXEBkv-12" target="blCKw0wp8l2TaCpXEBkv-6" edge="1">
          <mxGeometry relative="1" as="geometry">
            <mxPoint x="20" y="520" as="targetPoint" />
          </mxGeometry>
        </mxCell>
        <mxCell id="blCKw0wp8l2TaCpXEBkv-22" style="edgeStyle=orthogonalEdgeStyle;rounded=0;orthogonalLoop=1;jettySize=auto;html=1;exitX=0;exitY=0.5;exitDx=0;exitDy=0;fontFamily=Times New Roman;fontSize=14;entryX=0.5;entryY=0;entryDx=0;entryDy=0;" parent="1" source="blCKw0wp8l2TaCpXEBkv-12" target="blCKw0wp8l2TaCpXEBkv-9" edge="1">
          <mxGeometry relative="1" as="geometry">
            <mxPoint x="-120" y="230" as="targetPoint" />
            <Array as="points">
              <mxPoint x="-110" y="470" />
              <mxPoint x="-110" y="240" />
              <mxPoint x="20" y="240" />
            </Array>
          </mxGeometry>
        </mxCell>
        <mxCell id="blCKw0wp8l2TaCpXEBkv-12" value="验证集判定准确率&lt;br&gt;是否达到阈值" style="rhombus;whiteSpace=wrap;html=1;fontSize=14;fontFamily=Times New Roman;fontStyle=0;shadow=1;" parent="1" vertex="1">
          <mxGeometry x="-70" y="420" width="180" height="100" as="geometry" />
        </mxCell>
        <mxCell id="blCKw0wp8l2TaCpXEBkv-21" value="是" style="text;html=1;strokeColor=none;fillColor=none;align=left;verticalAlign=middle;whiteSpace=wrap;rounded=0;shadow=1;fontFamily=Times New Roman;fontSize=14;" parent="1" vertex="1">
          <mxGeometry x="30" y="520" width="60" height="30" as="geometry" />
        </mxCell>
        <mxCell id="blCKw0wp8l2TaCpXEBkv-25" value="否" style="text;html=1;strokeColor=none;fillColor=none;align=right;verticalAlign=middle;whiteSpace=wrap;rounded=0;shadow=1;fontFamily=Times New Roman;fontSize=14;" parent="1" vertex="1">
          <mxGeometry x="-180" y="330" width="60" height="30" as="geometry" />
        </mxCell>
        <mxCell id="cU6TKIRbubZpwWqlH4W0-12" style="edgeStyle=orthogonalEdgeStyle;rounded=0;orthogonalLoop=1;jettySize=auto;html=1;exitX=0.5;exitY=1;exitDx=0;exitDy=0;entryX=0.5;entryY=0;entryDx=0;entryDy=0;fontFamily=Times New Roman;fontSize=14;" edge="1" parent="1" source="blCKw0wp8l2TaCpXEBkv-26" target="cU6TKIRbubZpwWqlH4W0-1">
          <mxGeometry relative="1" as="geometry" />
        </mxCell>
        <mxCell id="blCKw0wp8l2TaCpXEBkv-26" value="&lt;font style=&quot;font-size: 14px;&quot;&gt;&lt;span style=&quot;&quot;&gt;开始&lt;/span&gt;&lt;/font&gt;" style="rounded=1;whiteSpace=wrap;html=1;arcSize=50;fontFamily=Times New Roman;fontStyle=0;shadow=1;" parent="1" vertex="1">
          <mxGeometry x="470" y="10" width="80" height="40" as="geometry" />
        </mxCell>
        <mxCell id="cU6TKIRbubZpwWqlH4W0-13" style="edgeStyle=orthogonalEdgeStyle;rounded=0;orthogonalLoop=1;jettySize=auto;html=1;exitX=0.5;exitY=1;exitDx=0;exitDy=0;entryX=0.5;entryY=0;entryDx=0;entryDy=0;fontFamily=Times New Roman;fontSize=14;" edge="1" parent="1" source="cU6TKIRbubZpwWqlH4W0-1" target="cU6TKIRbubZpwWqlH4W0-3">
          <mxGeometry relative="1" as="geometry" />
        </mxCell>
        <mxCell id="cU6TKIRbubZpwWqlH4W0-1" value="在会话列表中选中会话更新视图" style="rounded=0;whiteSpace=wrap;html=1;shadow=1;fontFamily=Times New Roman;fontSize=14;" vertex="1" parent="1">
          <mxGeometry x="450" y="70" width="120" height="60" as="geometry" />
        </mxCell>
        <mxCell id="cU6TKIRbubZpwWqlH4W0-14" style="edgeStyle=orthogonalEdgeStyle;rounded=0;orthogonalLoop=1;jettySize=auto;html=1;exitX=0.5;exitY=1;exitDx=0;exitDy=0;entryX=0.5;entryY=0;entryDx=0;entryDy=0;fontFamily=Times New Roman;fontSize=14;" edge="1" parent="1" source="cU6TKIRbubZpwWqlH4W0-3" target="cU6TKIRbubZpwWqlH4W0-7">
          <mxGeometry relative="1" as="geometry" />
        </mxCell>
        <mxCell id="cU6TKIRbubZpwWqlH4W0-24" style="edgeStyle=orthogonalEdgeStyle;rounded=0;orthogonalLoop=1;jettySize=auto;html=1;exitX=0;exitY=0.5;exitDx=0;exitDy=0;entryX=0;entryY=0.5;entryDx=0;entryDy=0;fontFamily=Times New Roman;fontSize=14;" edge="1" parent="1" source="cU6TKIRbubZpwWqlH4W0-3" target="cU6TKIRbubZpwWqlH4W0-9">
          <mxGeometry relative="1" as="geometry" />
        </mxCell>
        <mxCell id="cU6TKIRbubZpwWqlH4W0-3" value="根据会话信息统计图&lt;br&gt;判断该会话是否异常" style="rhombus;whiteSpace=wrap;html=1;fontSize=14;fontFamily=Times New Roman;fontStyle=0;shadow=1;" vertex="1" parent="1">
          <mxGeometry x="420" y="150" width="180" height="100" as="geometry" />
        </mxCell>
        <mxCell id="cU6TKIRbubZpwWqlH4W0-5" value="&lt;font style=&quot;font-size: 14px;&quot;&gt;&lt;span style=&quot;&quot;&gt;结束&lt;/span&gt;&lt;/font&gt;" style="rounded=1;whiteSpace=wrap;html=1;arcSize=50;fontFamily=Times New Roman;fontStyle=0;shadow=1;" vertex="1" parent="1">
          <mxGeometry x="470" y="945" width="80" height="40" as="geometry" />
        </mxCell>
        <mxCell id="cU6TKIRbubZpwWqlH4W0-16" style="edgeStyle=orthogonalEdgeStyle;rounded=0;orthogonalLoop=1;jettySize=auto;html=1;exitX=0.5;exitY=1;exitDx=0;exitDy=0;entryX=0.5;entryY=0;entryDx=0;entryDy=0;fontFamily=Times New Roman;fontSize=14;" edge="1" parent="1" source="cU6TKIRbubZpwWqlH4W0-6" target="cU6TKIRbubZpwWqlH4W0-8">
          <mxGeometry relative="1" as="geometry" />
        </mxCell>
        <mxCell id="cU6TKIRbubZpwWqlH4W0-27" style="edgeStyle=orthogonalEdgeStyle;rounded=0;orthogonalLoop=1;jettySize=auto;html=1;exitX=0;exitY=0.5;exitDx=0;exitDy=0;entryX=0;entryY=0.5;entryDx=0;entryDy=0;fontFamily=Times New Roman;fontSize=14;" edge="1" parent="1" source="cU6TKIRbubZpwWqlH4W0-6" target="cU6TKIRbubZpwWqlH4W0-9">
          <mxGeometry relative="1" as="geometry" />
        </mxCell>
        <mxCell id="cU6TKIRbubZpwWqlH4W0-6" value="根据时序流量图&lt;br&gt;判断该会话是否异常" style="rhombus;whiteSpace=wrap;html=1;fontSize=14;fontFamily=Times New Roman;fontStyle=0;shadow=1;" vertex="1" parent="1">
          <mxGeometry x="420" y="390" width="180" height="100" as="geometry" />
        </mxCell>
        <mxCell id="cU6TKIRbubZpwWqlH4W0-15" style="edgeStyle=orthogonalEdgeStyle;rounded=0;orthogonalLoop=1;jettySize=auto;html=1;exitX=0.5;exitY=1;exitDx=0;exitDy=0;entryX=0.5;entryY=0;entryDx=0;entryDy=0;fontFamily=Times New Roman;fontSize=14;" edge="1" parent="1" source="cU6TKIRbubZpwWqlH4W0-7" target="cU6TKIRbubZpwWqlH4W0-6">
          <mxGeometry relative="1" as="geometry" />
        </mxCell>
        <mxCell id="cU6TKIRbubZpwWqlH4W0-26" style="edgeStyle=orthogonalEdgeStyle;rounded=0;orthogonalLoop=1;jettySize=auto;html=1;exitX=0;exitY=0.5;exitDx=0;exitDy=0;entryX=0;entryY=0.5;entryDx=0;entryDy=0;fontFamily=Times New Roman;fontSize=14;" edge="1" parent="1" source="cU6TKIRbubZpwWqlH4W0-7" target="cU6TKIRbubZpwWqlH4W0-9">
          <mxGeometry relative="1" as="geometry" />
        </mxCell>
        <mxCell id="cU6TKIRbubZpwWqlH4W0-7" value="根据ip定位图判断&lt;br&gt;该会话数据是否异常" style="rhombus;whiteSpace=wrap;html=1;fontSize=14;fontFamily=Times New Roman;fontStyle=0;shadow=1;" vertex="1" parent="1">
          <mxGeometry x="420" y="270" width="180" height="100" as="geometry" />
        </mxCell>
        <mxCell id="cU6TKIRbubZpwWqlH4W0-17" style="edgeStyle=orthogonalEdgeStyle;rounded=0;orthogonalLoop=1;jettySize=auto;html=1;exitX=0.5;exitY=1;exitDx=0;exitDy=0;fontFamily=Times New Roman;fontSize=14;" edge="1" parent="1" source="cU6TKIRbubZpwWqlH4W0-8" target="cU6TKIRbubZpwWqlH4W0-9">
          <mxGeometry relative="1" as="geometry">
            <mxPoint x="510" y="630" as="targetPoint" />
          </mxGeometry>
        </mxCell>
        <mxCell id="cU6TKIRbubZpwWqlH4W0-28" style="edgeStyle=orthogonalEdgeStyle;rounded=0;orthogonalLoop=1;jettySize=auto;html=1;exitX=0;exitY=0.5;exitDx=0;exitDy=0;entryX=0;entryY=0.5;entryDx=0;entryDy=0;fontFamily=Times New Roman;fontSize=14;" edge="1" parent="1" source="cU6TKIRbubZpwWqlH4W0-8" target="cU6TKIRbubZpwWqlH4W0-9">
          <mxGeometry relative="1" as="geometry" />
        </mxCell>
        <mxCell id="cU6TKIRbubZpwWqlH4W0-8" value="根据会话原始信息&lt;br&gt;判断会话是否异常" style="rhombus;whiteSpace=wrap;html=1;fontSize=14;fontFamily=Times New Roman;fontStyle=0;shadow=1;" vertex="1" parent="1">
          <mxGeometry x="420" y="520" width="180" height="100" as="geometry" />
        </mxCell>
        <mxCell id="cU6TKIRbubZpwWqlH4W0-19" style="edgeStyle=orthogonalEdgeStyle;rounded=0;orthogonalLoop=1;jettySize=auto;html=1;exitX=0.5;exitY=1;exitDx=0;exitDy=0;fontFamily=Times New Roman;fontSize=14;" edge="1" parent="1" source="cU6TKIRbubZpwWqlH4W0-9" target="cU6TKIRbubZpwWqlH4W0-10">
          <mxGeometry relative="1" as="geometry" />
        </mxCell>
        <mxCell id="cU6TKIRbubZpwWqlH4W0-9" value="标记完成&lt;br&gt;提交数据进行迭代" style="rounded=0;whiteSpace=wrap;html=1;shadow=1;fontFamily=Times New Roman;fontSize=14;" vertex="1" parent="1">
          <mxGeometry x="450" y="640" width="120" height="60" as="geometry" />
        </mxCell>
        <mxCell id="cU6TKIRbubZpwWqlH4W0-20" style="edgeStyle=orthogonalEdgeStyle;rounded=0;orthogonalLoop=1;jettySize=auto;html=1;exitX=0.5;exitY=1;exitDx=0;exitDy=0;fontFamily=Times New Roman;fontSize=14;" edge="1" parent="1" source="cU6TKIRbubZpwWqlH4W0-10" target="cU6TKIRbubZpwWqlH4W0-11">
          <mxGeometry relative="1" as="geometry">
            <mxPoint x="510" y="820" as="targetPoint" />
          </mxGeometry>
        </mxCell>
        <mxCell id="cU6TKIRbubZpwWqlH4W0-10" value="更新散点图" style="rounded=0;whiteSpace=wrap;html=1;shadow=1;fontFamily=Times New Roman;fontSize=14;" vertex="1" parent="1">
          <mxGeometry x="450" y="730" width="120" height="60" as="geometry" />
        </mxCell>
        <mxCell id="cU6TKIRbubZpwWqlH4W0-21" style="edgeStyle=orthogonalEdgeStyle;rounded=0;orthogonalLoop=1;jettySize=auto;html=1;exitX=0.5;exitY=1;exitDx=0;exitDy=0;fontFamily=Times New Roman;fontSize=14;" edge="1" parent="1" source="cU6TKIRbubZpwWqlH4W0-11" target="cU6TKIRbubZpwWqlH4W0-5">
          <mxGeometry relative="1" as="geometry" />
        </mxCell>
        <mxCell id="cU6TKIRbubZpwWqlH4W0-23" style="edgeStyle=orthogonalEdgeStyle;rounded=0;orthogonalLoop=1;jettySize=auto;html=1;exitX=0;exitY=0.5;exitDx=0;exitDy=0;entryX=0;entryY=0.5;entryDx=0;entryDy=0;fontFamily=Times New Roman;fontSize=14;" edge="1" parent="1" source="cU6TKIRbubZpwWqlH4W0-11" target="cU6TKIRbubZpwWqlH4W0-1">
          <mxGeometry relative="1" as="geometry">
            <Array as="points">
              <mxPoint x="330" y="865" />
              <mxPoint x="330" y="100" />
            </Array>
          </mxGeometry>
        </mxCell>
        <mxCell id="cU6TKIRbubZpwWqlH4W0-11" value="是否结束流程" style="rhombus;whiteSpace=wrap;html=1;fontSize=14;fontFamily=Times New Roman;fontStyle=0;shadow=1;" vertex="1" parent="1">
          <mxGeometry x="420" y="815" width="180" height="100" as="geometry" />
        </mxCell>
        <mxCell id="cU6TKIRbubZpwWqlH4W0-30" value="否" style="text;html=1;strokeColor=none;fillColor=none;align=left;verticalAlign=middle;whiteSpace=wrap;rounded=0;shadow=1;fontFamily=Times New Roman;fontSize=14;" vertex="1" parent="1">
          <mxGeometry x="340" y="840" width="60" height="30" as="geometry" />
        </mxCell>
        <mxCell id="cU6TKIRbubZpwWqlH4W0-31" value="是" style="text;html=1;strokeColor=none;fillColor=none;align=left;verticalAlign=middle;whiteSpace=wrap;rounded=0;shadow=1;fontFamily=Times New Roman;fontSize=14;" vertex="1" parent="1">
          <mxGeometry x="514" y="915" width="60" height="30" as="geometry" />
        </mxCell>
        <mxCell id="cU6TKIRbubZpwWqlH4W0-32" value="是" style="text;html=1;strokeColor=none;fillColor=none;align=right;verticalAlign=middle;whiteSpace=wrap;rounded=0;shadow=1;fontFamily=Times New Roman;fontSize=14;" vertex="1" parent="1">
          <mxGeometry x="340" y="380" width="60" height="30" as="geometry" />
        </mxCell>
        <mxCell id="cU6TKIRbubZpwWqlH4W0-33" value="否" style="text;html=1;strokeColor=none;fillColor=none;align=left;verticalAlign=middle;whiteSpace=wrap;rounded=0;shadow=1;fontFamily=Times New Roman;fontSize=14;" vertex="1" parent="1">
          <mxGeometry x="519" y="490" width="60" height="30" as="geometry" />
        </mxCell>
        <mxCell id="cU6TKIRbubZpwWqlH4W0-34" value="否" style="text;html=1;strokeColor=none;fillColor=none;align=left;verticalAlign=middle;whiteSpace=wrap;rounded=0;shadow=1;fontFamily=Times New Roman;fontSize=14;" vertex="1" parent="1">
          <mxGeometry x="520" y="613" width="60" height="30" as="geometry" />
        </mxCell>
        <mxCell id="cU6TKIRbubZpwWqlH4W0-35" value="否" style="text;html=1;strokeColor=none;fillColor=none;align=left;verticalAlign=middle;whiteSpace=wrap;rounded=0;shadow=1;fontFamily=Times New Roman;fontSize=14;" vertex="1" parent="1">
          <mxGeometry x="520" y="368" width="60" height="30" as="geometry" />
        </mxCell>
        <mxCell id="cU6TKIRbubZpwWqlH4W0-36" value="否" style="text;html=1;strokeColor=none;fillColor=none;align=left;verticalAlign=middle;whiteSpace=wrap;rounded=0;shadow=1;fontFamily=Times New Roman;fontSize=14;" vertex="1" parent="1">
          <mxGeometry x="520" y="247" width="60" height="30" as="geometry" />
        </mxCell>
        <mxCell id="cU6TKIRbubZpwWqlH4W0-44" style="edgeStyle=orthogonalEdgeStyle;rounded=0;orthogonalLoop=1;jettySize=auto;html=1;exitX=0.5;exitY=1;exitDx=0;exitDy=0;entryX=0.5;entryY=0;entryDx=0;entryDy=0;fontFamily=Times New Roman;fontSize=14;" edge="1" parent="1" source="cU6TKIRbubZpwWqlH4W0-37" target="cU6TKIRbubZpwWqlH4W0-38">
          <mxGeometry relative="1" as="geometry" />
        </mxCell>
        <mxCell id="cU6TKIRbubZpwWqlH4W0-37" value="&lt;font style=&quot;font-size: 14px;&quot;&gt;&lt;span style=&quot;&quot;&gt;开始&lt;/span&gt;&lt;/font&gt;" style="rounded=1;whiteSpace=wrap;html=1;arcSize=50;fontFamily=Times New Roman;fontStyle=0;shadow=1;" vertex="1" parent="1">
          <mxGeometry x="840" y="10" width="80" height="40" as="geometry" />
        </mxCell>
        <mxCell id="cU6TKIRbubZpwWqlH4W0-45" value="" style="edgeStyle=orthogonalEdgeStyle;rounded=0;orthogonalLoop=1;jettySize=auto;html=1;fontFamily=Times New Roman;fontSize=14;" edge="1" parent="1" source="cU6TKIRbubZpwWqlH4W0-38" target="cU6TKIRbubZpwWqlH4W0-39">
          <mxGeometry relative="1" as="geometry" />
        </mxCell>
        <mxCell id="cU6TKIRbubZpwWqlH4W0-38" value="上传文件" style="rounded=0;whiteSpace=wrap;html=1;shadow=1;fontFamily=Times New Roman;fontSize=14;" vertex="1" parent="1">
          <mxGeometry x="820" y="68" width="120" height="60" as="geometry" />
        </mxCell>
        <mxCell id="cU6TKIRbubZpwWqlH4W0-46" value="" style="edgeStyle=orthogonalEdgeStyle;rounded=0;orthogonalLoop=1;jettySize=auto;html=1;fontFamily=Times New Roman;fontSize=14;" edge="1" parent="1" source="cU6TKIRbubZpwWqlH4W0-39" target="cU6TKIRbubZpwWqlH4W0-40">
          <mxGeometry relative="1" as="geometry" />
        </mxCell>
        <mxCell id="cU6TKIRbubZpwWqlH4W0-39" value="IP地理位置定位" style="rounded=0;whiteSpace=wrap;html=1;shadow=1;fontFamily=Times New Roman;fontSize=14;" vertex="1" parent="1">
          <mxGeometry x="820" y="152" width="120" height="60" as="geometry" />
        </mxCell>
        <mxCell id="cU6TKIRbubZpwWqlH4W0-47" value="" style="edgeStyle=orthogonalEdgeStyle;rounded=0;orthogonalLoop=1;jettySize=auto;html=1;fontFamily=Times New Roman;fontSize=14;" edge="1" parent="1" source="cU6TKIRbubZpwWqlH4W0-40" target="cU6TKIRbubZpwWqlH4W0-41">
          <mxGeometry relative="1" as="geometry" />
        </mxCell>
        <mxCell id="cU6TKIRbubZpwWqlH4W0-40" value="会话划分" style="rounded=0;whiteSpace=wrap;html=1;shadow=1;fontFamily=Times New Roman;fontSize=14;" vertex="1" parent="1">
          <mxGeometry x="820" y="237" width="120" height="60" as="geometry" />
        </mxCell>
        <mxCell id="cU6TKIRbubZpwWqlH4W0-48" value="" style="edgeStyle=orthogonalEdgeStyle;rounded=0;orthogonalLoop=1;jettySize=auto;html=1;fontFamily=Times New Roman;fontSize=14;" edge="1" parent="1" source="cU6TKIRbubZpwWqlH4W0-41" target="cU6TKIRbubZpwWqlH4W0-42">
          <mxGeometry relative="1" as="geometry" />
        </mxCell>
        <mxCell id="cU6TKIRbubZpwWqlH4W0-41" value="文本向量化" style="rounded=0;whiteSpace=wrap;html=1;shadow=1;fontFamily=Times New Roman;fontSize=14;" vertex="1" parent="1">
          <mxGeometry x="820" y="321" width="120" height="60" as="geometry" />
        </mxCell>
        <mxCell id="cU6TKIRbubZpwWqlH4W0-49" value="" style="edgeStyle=orthogonalEdgeStyle;rounded=0;orthogonalLoop=1;jettySize=auto;html=1;fontFamily=Times New Roman;fontSize=14;" edge="1" parent="1" source="cU6TKIRbubZpwWqlH4W0-42" target="cU6TKIRbubZpwWqlH4W0-43">
          <mxGeometry relative="1" as="geometry" />
        </mxCell>
        <mxCell id="cU6TKIRbubZpwWqlH4W0-42" value="CSV文件转&lt;br&gt;JSON文件" style="rounded=0;whiteSpace=wrap;html=1;shadow=1;fontFamily=Times New Roman;fontSize=14;" vertex="1" parent="1">
          <mxGeometry x="820" y="402" width="120" height="60" as="geometry" />
        </mxCell>
        <mxCell id="cU6TKIRbubZpwWqlH4W0-43" value="&lt;font style=&quot;font-size: 14px;&quot;&gt;&lt;span style=&quot;&quot;&gt;结束&lt;/span&gt;&lt;/font&gt;" style="rounded=1;whiteSpace=wrap;html=1;arcSize=50;fontFamily=Times New Roman;fontStyle=0;shadow=1;" vertex="1" parent="1">
          <mxGeometry x="840" y="482" width="80" height="40" as="geometry" />
        </mxCell>
      </root>
    </mxGraphModel>
  </diagram>
</mxfile>
